<?xml version="1.0" encoding="UTF-8" standalone="no"?><svg xmlns="http://www.w3.org/2000/svg" xmlns:xlink= "http://www.w3.org/1999/xlink" width="600" height="390" aria-label="A chart." style="overflow: hidden;"><defs id="_ABSTRACT_RENDERER_ID_14"></defs><rect x="0" y="0" width="600" height="390" stroke="none" stroke-width="0" fill="#ffffff"></rect><g><text text-anchor="start" x="115" y="52.05" font-family="Arial" font-size="13" font-weight="bold" stroke="none" stroke-width="0" fill="#000000">Placement 2023</text><rect x="115" y="41" width="371" height="13" stroke="none" stroke-width="0" fill-opacity="0" fill="#ffffff"></rect></g><g><path d="M301,184L301,208L206.64538814360566,148.68547714332794L206.64538814360566,124.68547714332796" stroke="#a52b0e" stroke-width="1" fill="#a52b0e"></path><path d="M301,184L206.64538814360566,124.68547714332796A120,96,0,0,1,301,88L301,184A0,0,0,0,0,301,184" stroke="#dc3912" stroke-width="1" fill="#dc3912"></path><text text-anchor="start" x="248.70410685281843" y="122.63866235709638" font-family="Arial" font-size="13" stroke="none" stroke-width="0" fill="#ffffff">144</text></g><g><path d="M421,184L421,208A120,96,0,0,1,181,208L181,184A120,96,0,0,0,421,184" stroke="#264d99" stroke-width="1" fill="#264d99"></path><path d="M301,184L301,88A120,96,0,1,1,206.64538814360566,124.68547714332796L301,184A0,0,0,1,0,301,184" stroke="#3366cc" stroke-width="1" fill="#3366cc"></path><text text-anchor="start" x="331.2958931471815" y="254.46133764290363" font-family="Arial" font-size="13" stroke="none" stroke-width="0" fill="#ffffff">856</text></g><g><g><g><text text-anchor="end" x="486" y="243.03269468479607" font-family="Arial" font-size="13" stroke="none" stroke-width="0" fill="#222222">Placed</text></g><g><text text-anchor="end" x="486" y="264.06730531520395" font-family="Arial" font-size="13" stroke="none" stroke-width="0" fill="#9e9e9e">85.6%</text></g></g><g><path d="M340.5,249.5L434,249.5L434,249.5L486.5,249.5" stroke="#636363" stroke-width="1" stroke-opacity="0.7" fill-opacity="1" fill="none"></path><circle cx="340.5" cy="249.5" r="2" stroke="none" stroke-width="0" fill-opacity="0.7" fill="#636363"></circle></g><g><g><text text-anchor="start" x="115" y="113.03269468479604" font-family="Arial" font-size="13" stroke="none" stroke-width="0" fill="#222222">Not</text></g><g><text text-anchor="start" x="115" y="134.06730531520395" font-family="Arial" font-size="13" stroke="none" stroke-width="0" fill="#9e9e9e">14.4%</text></g></g><g><path d="M262.5,119.5L168,119.5L168,119.5L115.5,119.5" stroke="#636363" stroke-width="1" stroke-opacity="0.7" fill-opacity="1" fill="none"></path><circle cx="262.5" cy="119.5" r="2" stroke="none" stroke-width="0" fill-opacity="0.7" fill="#636363"></circle></g></g><g></g></svg>